<svg aria-hidden="true" style="position: absolute; width: 0; height: 0; overflow: hidden;" version="1.1" xmlns="http://www.w3.org/2000/svg" xmlns:xlink="http://www.w3.org/1999/xlink">
<defs>
<symbol id="icon-down" viewBox="0 0 20 32">
<title>down</title>
<path d="M8.938 22.019l-8.5-8.5c-0.588-0.588-0.588-1.537 0-2.119l1.413-1.412c0.587-0.588 1.538-0.588 2.119 0l6.025 6.025 6.025-6.025c0.587-0.588 1.538-0.588 2.119 0l1.413 1.412c0.587 0.588 0.587 1.537 0 2.119l-8.5 8.5c-0.575 0.587-1.525 0.587-2.113 0z"></path>
</symbol>
<symbol id="icon-left" viewBox="0 0 16 32">
<title>left</title>
<path d="M1.981 14.938l8.5-8.5c0.588-0.588 1.537-0.588 2.119 0l1.412 1.412c0.588 0.588 0.588 1.537 0 2.119l-6.019 6.031 6.025 6.025c0.588 0.587 0.588 1.538 0 2.119l-1.412 1.419c-0.588 0.587-1.537 0.587-2.119 0l-8.5-8.5c-0.594-0.587-0.594-1.537-0.006-2.125z"></path>
</symbol>
<symbol id="icon-right" viewBox="0 0 16 32">
<title>right</title>
<path d="M14.019 17.063l-8.5 8.5c-0.588 0.587-1.538 0.587-2.119 0l-1.413-1.413c-0.587-0.587-0.587-1.538 0-2.119l6.025-6.025-6.025-6.025c-0.587-0.588-0.587-1.537 0-2.119l1.406-1.425c0.587-0.588 1.537-0.588 2.119 0l8.5 8.5c0.594 0.588 0.594 1.538 0.006 2.125z"></path>
</symbol>
<symbol id="icon-up" viewBox="0 0 20 32">
<title>up</title>
<path d="M11.063 9.981l8.5 8.5c0.587 0.587 0.587 1.538 0 2.119l-1.413 1.413c-0.587 0.587-1.538 0.587-2.119 0l-6.031-6.019-6.025 6.025c-0.587 0.587-1.538 0.587-2.119 0l-1.419-1.413c-0.588-0.587-0.588-1.538 0-2.119l8.5-8.5c0.588-0.594 1.537-0.594 2.125-0.006z"></path>
</symbol>
<symbol id="icon-check" viewBox="0 0 32 32">
<title>check</title>
<path d="M10.869 27.463l-10.4-10.4c-0.625-0.625-0.625-1.638 0-2.263l2.263-2.263c0.625-0.625 1.638-0.625 2.263 0l7.006 7.006 15.006-15.006c0.625-0.625 1.638-0.625 2.263 0l2.263 2.263c0.625 0.625 0.625 1.638 0 2.263l-18.4 18.4c-0.625 0.625-1.638 0.625-2.263-0z"></path>
</symbol>
<symbol id="icon-circle-right" viewBox="0 0 32 32">
<title>circle-right</title>
<path d="M16 0.5c8.563 0 15.5 6.938 15.5 15.5s-6.938 15.5-15.5 15.5-15.5-6.938-15.5-15.5 6.938-15.5 15.5-15.5zM23.119 14.938l-8.469-8.469c-0.588-0.588-1.537-0.588-2.119 0l-1.063 1.063c-0.588 0.588-0.588 1.537 0 2.119l6.35 6.35-6.35 6.35c-0.588 0.587-0.588 1.538 0 2.119l1.063 1.063c0.588 0.587 1.537 0.587 2.119 0l8.469-8.469c0.587-0.587 0.587-1.537 0-2.125z"></path>
</symbol>
<symbol id="icon-comment-exclamation" viewBox="0 0 32 32">
<title>comment-exclamation</title>
<path d="M16 2c-8.838 0-16 5.819-16 13 0 3.1 1.337 5.938 3.563 8.169-0.781 3.15-3.394 5.956-3.425 5.988-0.138 0.144-0.175 0.356-0.094 0.544s0.256 0.3 0.456 0.3c4.144 0 7.25-1.988 8.787-3.212 2.044 0.769 4.313 1.212 6.713 1.212 8.837 0 16-5.819 16-13s-7.163-13-16-13zM16 23c-1.106 0-2-0.894-2-2s0.894-2 2-2 2 0.894 2 2-0.894 2-2 2zM17.587 16.1c-0.050 0.512-0.481 0.9-0.994 0.9h-1.188c-0.512 0-0.944-0.387-0.994-0.9l-0.8-8c-0.056-0.588 0.406-1.1 0.994-1.1h2.788c0.594 0 1.056 0.513 0.994 1.1l-0.8 8z"></path>
</symbol>
<symbol id="icon-communication" viewBox="0 0 36 32">
<title>communication</title>
<path d="M26 12c0-5.525-5.819-10-13-10s-13 4.475-13 10c0 2.144 0.881 4.119 2.375 5.75-0.837 1.887-2.219 3.387-2.237 3.406-0.138 0.144-0.175 0.356-0.094 0.544s0.256 0.3 0.456 0.3c2.288 0 4.181-0.769 5.544-1.563 2.013 0.981 4.394 1.563 6.956 1.563 7.181 0 13-4.475 13-10zM33.625 25.75c1.494-1.625 2.375-3.606 2.375-5.75 0-4.181-3.344-7.762-8.081-9.256 0.056 0.412 0.081 0.831 0.081 1.256 0 6.619-6.731 12-15 12-0.675 0-1.331-0.050-1.981-0.119 1.969 3.594 6.594 6.119 11.981 6.119 2.563 0 4.944-0.575 6.956-1.563 1.363 0.794 3.256 1.563 5.544 1.563 0.2 0 0.381-0.119 0.456-0.3 0.081-0.181 0.044-0.394-0.094-0.544-0.019-0.019-1.4-1.512-2.237-3.406z"></path>
</symbol>
<symbol id="icon-dove" viewBox="0 0 32 32">
<title>dove</title>
<path d="M18 10.45v-1.756c-1.762-2.269-2.944-4.956-3.381-7.825-0.131-0.844-1.188-1.175-1.738-0.519-1.319 1.556-2.356 3.381-3.056 5.406 2.137 2.394 5 4.037 8.175 4.694zM25 4c-2.762 0-5 2.244-5 5.006v3.713c-6.525-0.387-12.063-4.406-14.563-10.106-0.344-0.781-1.45-0.825-1.813-0.056-1.038 2.194-1.625 4.644-1.625 7.231 0 4.425 2.131 8.556 5.319 11.619 0.825 0.794 1.631 1.45 2.431 2.050l-8.994 2.25c-0.669 0.169-0.969 0.944-0.594 1.525 1.087 1.681 3.775 4.531 9.575 4.769 0.5 0.019 1-0.163 1.381-0.494l4.075-3.506h4.806c5.525 0 10-4.469 10-9.994v-10.006l2-4h-7zM25 10.006c-0.55 0-1-0.45-1-1s0.45-1 1-1 1 0.45 1 1-0.45 1-1 1z"></path>
</symbol>
<symbol id="icon-light-dark-mode" viewBox="0 0 40 32">
<title>light-dark-mode</title>
<path d="M29 5c-6.075 0-11 4.925-11 11s4.925 11 11 11 11-4.925 11-11-4.925-11-11-11zM10.344 21.656c-3.119-3.119-3.119-8.194 0-11.313 2.194-2.194 5.344-2.813 8.113-1.919 0.469-0.65 0.988-1.256 1.569-1.806l-3.056-6.019c-0.4-0.8-1.537-0.8-1.938 0l-2.956 5.919-6.281-2.094c-0.85-0.281-1.656 0.525-1.369 1.369l2.094 6.275-5.919 2.963c-0.8 0.4-0.8 1.537 0 1.937l5.919 2.956-2.094 6.281c-0.281 0.85 0.525 1.656 1.369 1.369l6.275-2.094 2.956 5.919c0.4 0.8 1.538 0.8 1.938 0l2.956-5.919 0.331 0.113c-0.669-0.606-1.269-1.281-1.8-2.019-2.762 0.894-5.912 0.275-8.106-1.919zM16 10c-3.306 0-6 2.694-6 6s2.694 6 6 6c0.481 0 0.944-0.075 1.394-0.181-0.887-1.75-1.394-3.725-1.394-5.819s0.506-4.069 1.394-5.819c-0.45-0.106-0.913-0.181-1.394-0.181z"></path>
</symbol>
<symbol id="icon-mail" viewBox="0 0 32 32">
<title>mail</title>
<path d="M31.394 11.925c0.244-0.194 0.606-0.012 0.606 0.294v12.781c0 1.656-1.344 3-3 3h-26c-1.656 0-3-1.344-3-3v-12.775c0-0.313 0.356-0.488 0.606-0.294 1.4 1.088 3.256 2.469 9.631 7.1 1.319 0.962 3.544 2.988 5.763 2.975 2.231 0.019 4.5-2.050 5.769-2.975 6.375-4.631 8.225-6.019 9.625-7.106zM16 20c1.45 0.025 3.538-1.825 4.587-2.587 8.294-6.019 8.925-6.544 10.837-8.044 0.363-0.281 0.575-0.719 0.575-1.181v-1.188c0-1.656-1.344-3-3-3h-26c-1.656 0-3 1.344-3 3v1.188c0 0.463 0.212 0.894 0.575 1.181 1.912 1.494 2.544 2.025 10.838 8.044 1.050 0.762 3.138 2.613 4.588 2.587z"></path>
</symbol>
<symbol id="icon-web" viewBox="0 0 31 32">
<title>web</title>
<path d="M21.031 10c-0.906-5.581-3.044-9.5-5.531-9.5s-4.625 3.919-5.531 9.5h11.063zM9.5 16c0 1.387 0.075 2.719 0.206 4h11.581c0.131-1.281 0.206-2.613 0.206-4s-0.075-2.719-0.206-4h-11.581c-0.131 1.281-0.206 2.613-0.206 4zM29.794 10c-1.788-4.244-5.406-7.525-9.875-8.85 1.525 2.112 2.575 5.294 3.125 8.85h6.75zM11.075 1.15c-4.463 1.325-8.088 4.606-9.869 8.85h6.75c0.544-3.556 1.594-6.737 3.119-8.85zM30.462 12h-7.169c0.131 1.313 0.206 2.656 0.206 4s-0.075 2.688-0.206 4h7.162c0.344-1.281 0.538-2.613 0.538-4s-0.194-2.719-0.531-4zM7.5 16c0-1.344 0.075-2.688 0.206-4h-7.169c-0.338 1.281-0.537 2.613-0.537 4s0.2 2.719 0.537 4h7.162c-0.125-1.313-0.2-2.656-0.2-4zM9.969 22c0.906 5.581 3.044 9.5 5.531 9.5s4.625-3.919 5.531-9.5h-11.063zM19.925 30.85c4.463-1.325 8.088-4.606 9.875-8.85h-6.75c-0.55 3.556-1.6 6.738-3.125 8.85zM1.206 22c1.788 4.244 5.406 7.525 9.875 8.85-1.525-2.113-2.575-5.294-3.125-8.85h-6.75z"></path>
</symbol>
<symbol id="icon-heart" viewBox="0 0 32 32">
<title>heart</title>
<path d="M28.894 3.913c-3.425-2.919-8.519-2.394-11.662 0.85l-1.231 1.269-1.231-1.269c-3.137-3.244-8.238-3.769-11.662-0.85-3.925 3.35-4.131 9.363-0.619 12.994l12.094 12.488c0.781 0.806 2.050 0.806 2.831 0l12.094-12.488c3.519-3.631 3.313-9.644-0.613-12.994z"></path>
</symbol>
<symbol id="icon-military" viewBox="0 0 32 32">
<title>military</title>
<path d="M13.984 8.172l-4.321-7.201c-0.356-0.586-0.99-0.971-1.715-0.971h-6.947c-0.809 0-1.283 0.911-0.819 1.574l6.954 9.935c1.857-1.736 4.22-2.927 6.848-3.337zM30.998 0h-6.947c-0.703 0-1.354 0.369-1.715 0.971l-4.321 7.201c2.628 0.41 4.99 1.601 6.848 3.336l6.954-9.934c0.464-0.663-0.010-1.574-0.819-1.574zM16 10c-6.075 0-11 4.925-11 11s4.925 11 11 11 11-4.925 11-11-4.925-11-11-11zM21.782 19.829l-2.371 2.31 0.561 3.264c0.1 0.585-0.516 1.032-1.041 0.756l-2.932-1.541-2.931 1.541c-0.525 0.278-1.141-0.171-1.041-0.756l0.561-3.264-2.371-2.31c-0.426-0.415-0.191-1.139 0.397-1.224l3.277-0.477 1.464-2.97c0.132-0.268 0.387-0.399 0.643-0.399 0.257 0 0.514 0.134 0.646 0.399l1.464 2.97 3.277 0.477c0.587 0.085 0.823 0.809 0.397 1.224z"></path>
</symbol>
<symbol id="icon-share" viewBox="0 0 32 32">
<title>share</title>
<path d="M31.481 11.865l-11-9.499c-0.963-0.832-2.48-0.156-2.48 1.135v5.003c-10.039 0.115-18 2.127-18 11.641 0 3.84 2.474 7.644 5.208 9.633 0.853 0.621 2.069-0.158 1.755-1.164-2.834-9.063 1.344-11.469 11.037-11.609v5.495c0 1.294 1.519 1.966 2.48 1.135l11-9.5c0.692-0.598 0.693-1.672 0-2.271z"></path>
</symbol>
<symbol id="icon-stars" viewBox="0 0 32 32">
<title>stars</title>
<path d="M21 10l1.669-3.331 3.331-1.669-3.331-1.669-1.669-3.331-1.669 3.331-3.331 1.669 3.331 1.669 1.669 3.331zM30 12l-1-2-1 2-2 1 2 1 1 2 1-2 2-1-2-1zM22.769 16.706l-6.55-0.956-2.931-5.95c-0.525-1.063-2.044-1.075-2.575 0l-2.931 5.95-6.55 0.956c-1.175 0.169-1.65 1.619-0.794 2.45l4.744 4.625-1.125 6.538c-0.2 1.181 1.044 2.069 2.081 1.512l5.862-3.087 5.862 3.087c1.044 0.55 2.281-0.331 2.081-1.512l-1.119-6.538 4.744-4.625c0.85-0.831 0.375-2.281-0.8-2.45z"></path>
</symbol>
<symbol id="icon-results" viewBox="0 0 40 32">
<title>results</title>
<path d="M13 22h-0.238c-0.871 0.302-1.79 0.5-2.762 0.5s-1.891-0.198-2.762-0.5h-0.238c-3.866 0-7 3.134-7 7 0 1.657 1.343 3 3 3h14c1.657 0 3-1.343 3-3 0-3.866-3.134-7-7-7zM37 0h-24c-1.654 0-3 1.391-3 3.099v2.901c1.464 0 2.819 0.424 4 1.112v-3.112h22v18h-16.765c1.194 1.043 2.070 2.421 2.481 4h15.284c1.654 0 3-1.391 3-3.099v-19.801c0-1.709-1.346-3.099-3-3.099zM10 20c3.314 0 6-2.686 6-6s-2.686-6-6-6-6 2.686-6 6 2.686 6 6 6zM20.561 10.439c-0.586-0.586-1.536-0.586-2.121 0l-0.922 0.922c0.293 0.831 0.483 1.709 0.483 2.638 0 0.427-0.061 0.838-0.126 1.247l1.626-1.625 3.439 3.439c0.586 0.586 1.536 0.586 2.121 0l4.5-4.5 1.519 1.519c0.709 0.709 1.921 0.207 1.921-0.796v-5.534c0-0.414-0.336-0.75-0.75-0.75h-5.534c-1.003 0-1.504 1.212-0.796 1.921l1.519 1.519-3.439 3.439-3.439-3.439z"></path>
</symbol>
<symbol id="icon-education" viewBox="0 0 28 32">
<title>education</title>
<path d="M19.962 20.038l-5.963 5.962-5.963-5.962c-4.469 0.194-8.037 3.85-8.037 8.363v0.6c0 1.656 1.344 3 3 3h22c1.656 0 3-1.344 3-3v-0.6c0-4.512-3.569-8.169-8.038-8.363zM0.85 4.987l0.4 0.094v3.65c-0.438 0.262-0.75 0.719-0.75 1.269 0 0.525 0.287 0.963 0.694 1.231l-0.975 3.894c-0.106 0.431 0.131 0.875 0.475 0.875h2.612c0.344 0 0.581-0.444 0.475-0.875l-0.975-3.894c0.406-0.269 0.694-0.706 0.694-1.231 0-0.55-0.313-1.006-0.75-1.269v-3.287l4.125 0.994c-0.537 1.075-0.875 2.275-0.875 3.563 0 4.419 3.581 8 8 8s8-3.581 8-8c0-1.287-0.331-2.487-0.875-3.563l6.019-1.45c1.137-0.275 1.137-1.694 0-1.969l-11.9-2.875c-0.813-0.194-1.669-0.194-2.481 0l-11.912 2.869c-1.131 0.275-1.131 1.7 0 1.975z"></path>
</symbol>
<symbol id="icon-solutions" viewBox="0 0 40 32">
<title>solutions</title>
<path d="M33.663 12.275l-0.156-0.244c-0.256 0.019-0.506 0.019-0.763 0l-0.156 0.25c-0.362 0.575-1.069 0.838-1.719 0.631-0.863-0.269-1.438-0.55-2.144-1.131-0.563-0.463-0.7-1.269-0.337-1.9l0.156-0.269c-0.144-0.213-0.269-0.431-0.381-0.662h-0.569c-0.725 0-1.337-0.512-1.475-1.225-0.163-0.856-0.169-1.513 0.006-2.406 0.131-0.706 0.756-1.219 1.475-1.219h0.563c0.113-0.231 0.238-0.45 0.381-0.663l-0.163-0.281c-0.363-0.625-0.225-1.419 0.325-1.894 0.663-0.569 1.231-0.894 2.094-1.188 0.675-0.231 1.419 0.044 1.781 0.662l0.163 0.275c0.256-0.019 0.506-0.019 0.763 0l0.163-0.275c0.362-0.619 1.106-0.894 1.788-0.656 0.831 0.281 1.394 0.6 2.094 1.194 0.55 0.469 0.681 1.263 0.319 1.888l-0.163 0.275c0.144 0.212 0.269 0.431 0.381 0.663h0.319c0.725 0 1.337 0.513 1.475 1.225 0.163 0.856 0.169 1.513-0.006 2.406-0.131 0.706-0.756 1.219-1.475 1.219h-0.313c-0.112 0.231-0.237 0.45-0.381 0.662l0.156 0.269c0.369 0.637 0.219 1.444-0.344 1.906-0.669 0.55-1.244 0.838-2.125 1.119-0.656 0.206-1.369-0.050-1.731-0.631zM34.425 10.119l0.663 1.144c0.419-0.175 0.806-0.4 1.169-0.675l-0.663-1.144 0.4-0.469c0.3-0.356 0.538-0.756 0.688-1.194l0.206-0.581h1.319c0.056-0.444 0.056-0.9 0-1.344h-1.319l-0.206-0.581c-0.156-0.438-0.388-0.838-0.688-1.194l-0.4-0.469 0.656-1.15c-0.356-0.275-0.75-0.5-1.169-0.675l-0.663 1.144-0.606-0.112c-0.456-0.087-0.925-0.087-1.381 0l-0.606 0.112-0.663-1.144c-0.413 0.169-0.806 0.4-1.163 0.675l0.663 1.144-0.4 0.469c-0.3 0.356-0.538 0.756-0.688 1.194l-0.206 0.581h-1.319c-0.056 0.444-0.056 0.9 0 1.344h1.319l0.206 0.581c0.156 0.438 0.387 0.838 0.688 1.194l0.4 0.469-0.663 1.15c0.356 0.275 0.75 0.5 1.169 0.675l0.663-1.144 0.606 0.113c0.456 0.088 0.925 0.088 1.381 0l0.606-0.113zM9.081 28.4v-1.975c-0.806-0.344-1.569-0.788-2.275-1.319l-1.719 0.994c-0.612 0.35-1.381 0.231-1.856-0.288-1.512-1.644-2.406-3.094-3.163-5.506-0.212-0.669 0.069-1.394 0.675-1.75l1.706-0.994c-0.106-0.875-0.106-1.756 0-2.631l-1.706-0.988c-0.606-0.35-0.887-1.081-0.675-1.75 0.756-2.4 1.637-3.85 3.163-5.506 0.475-0.519 1.25-0.638 1.856-0.287l1.713 0.994c0.706-0.531 1.469-0.969 2.275-1.319v-1.975c0-0.706 0.488-1.313 1.175-1.462 2.169-0.487 3.875-0.544 6.356 0 0.688 0.15 1.181 0.762 1.181 1.462v1.975c0.806 0.344 1.569 0.787 2.275 1.313l1.712-0.987c0.613-0.35 1.387-0.231 1.863 0.287 1.681 1.85 2.594 3.494 3.256 5.531 0.212 0.656-0.050 1.369-0.637 1.731l-1.563 0.988c0.106 0.875 0.106 1.756 0 2.631l1.756 1.094c0.538 0.337 0.813 0.975 0.675 1.594-0.431 1.956-2.063 4.038-3.494 5.575-0.475 0.512-1.244 0.625-1.85 0.275l-1.719-0.994c-0.706 0.531-1.469 0.969-2.275 1.319v1.975c0 0.7-0.488 1.313-1.175 1.462-2.344 0.519-4.056 0.512-6.369 0-0.675-0.156-1.162-0.769-1.162-1.469zM11.081 28.012c1.55 0.313 3.156 0.313 4.706 0v-2.981l0.669-0.238c1.050-0.369 2.019-0.931 2.869-1.656l0.538-0.462 2.587 1.494c1.050-1.194 2.125-2.581 2.631-4.075l-2.587-1.494 0.131-0.694c0.2-1.1 0.2-2.219 0-3.319l-0.131-0.694 2.587-1.494c-0.506-1.494-1.581-2.888-2.631-4.075l-2.587 1.494-0.538-0.463c-0.85-0.731-1.813-1.287-2.869-1.656l-0.669-0.237v-2.975c-1.55-0.313-3.156-0.313-4.706 0v2.981l-0.669 0.237c-1.050 0.369-2.019 0.931-2.869 1.656l-0.537 0.463-2.588-1.494c-1.011 1.145-1.813 2.501-2.331 3.991l-0.026 0.084 2.587 1.494-0.131 0.694c-0.2 1.1-0.2 2.219 0 3.319l0.131 0.694-2.587 1.494c0.506 1.494 1.306 2.887 2.356 4.075l2.588-1.494 0.537 0.462c0.85 0.731 1.813 1.288 2.869 1.656l0.669 0.238v2.975zM13.481 21.431c-2.856 0-5.181-2.325-5.181-5.181s2.325-5.181 5.181-5.181 5.181 2.325 5.181 5.181-2.325 5.181-5.181 5.181zM13.481 13.069c-1.75 0-3.181 1.425-3.181 3.181s1.425 3.181 3.181 3.181c1.75 0 3.181-1.425 3.181-3.181s-1.425-3.181-3.181-3.181zM33.663 31.3l-0.156-0.244c-0.256 0.019-0.506 0.019-0.763 0l-0.156 0.25c-0.362 0.575-1.069 0.838-1.719 0.631-0.863-0.269-1.438-0.55-2.144-1.131-0.563-0.462-0.7-1.269-0.337-1.9l0.156-0.269c-0.144-0.212-0.269-0.431-0.381-0.663h-0.569c-0.725 0-1.337-0.512-1.475-1.225-0.163-0.856-0.169-1.512 0.006-2.406 0.131-0.706 0.756-1.219 1.475-1.219h0.563c0.113-0.231 0.238-0.45 0.381-0.663l-0.163-0.281c-0.363-0.625-0.225-1.419 0.325-1.894 0.663-0.569 1.231-0.894 2.094-1.188 0.675-0.231 1.419 0.044 1.781 0.663l0.163 0.275c0.256-0.019 0.506-0.019 0.763 0l0.163-0.275c0.362-0.619 1.106-0.894 1.788-0.656 0.831 0.281 1.394 0.6 2.094 1.194 0.55 0.469 0.681 1.262 0.319 1.887l-0.163 0.275c0.144 0.212 0.269 0.431 0.381 0.663h0.319c0.725 0 1.337 0.512 1.475 1.225 0.163 0.856 0.169 1.512-0.006 2.406-0.131 0.706-0.756 1.219-1.475 1.219h-0.313c-0.112 0.231-0.237 0.45-0.381 0.663l0.156 0.269c0.369 0.637 0.219 1.444-0.344 1.906-0.669 0.55-1.244 0.837-2.125 1.119-0.656 0.2-1.369-0.056-1.731-0.631zM34.425 29.137l0.663 1.144c0.419-0.175 0.806-0.4 1.169-0.675l-0.663-1.144 0.4-0.469c0.3-0.356 0.538-0.756 0.688-1.194l0.206-0.581h1.319c0.056-0.444 0.056-0.9 0-1.344h-1.319l-0.206-0.581c-0.156-0.438-0.388-0.837-0.688-1.194l-0.4-0.469 0.663-1.144c-0.356-0.275-0.75-0.5-1.169-0.675l-0.663 1.144-0.606-0.113c-0.456-0.087-0.925-0.087-1.381 0l-0.606 0.113-0.663-1.144c-0.419 0.175-0.806 0.4-1.169 0.675l0.663 1.144-0.4 0.469c-0.3 0.356-0.538 0.756-0.688 1.194l-0.206 0.581h-1.319c-0.056 0.444-0.056 0.9 0 1.344h1.319l0.206 0.581c0.156 0.438 0.387 0.837 0.688 1.194l0.4 0.469-0.663 1.144c0.356 0.275 0.75 0.5 1.169 0.675l0.663-1.144 0.606 0.113c0.456 0.087 0.925 0.087 1.381 0l0.606-0.113zM35 25.5c0-1.106-0.894-2-2-2s-2 0.894-2 2 0.894 2 2 2 2-0.894 2-2zM35 6.481c0-1.106-0.894-2-2-2s-2 0.894-2 2 0.894 2 2 2 2-0.9 2-2z"></path>
</symbol>
<symbol id="icon-branding" viewBox="0 0 36 32">
<title>branding</title>
<path d="M32 20s-4 5.791-4 8c0 2.209 1.791 4 4 4s4-1.791 4-4-4-8-4-8zM32 30c-1.102 0-2-0.898-2-1.997 0.016-0.611 0.848-2.354 2.001-4.296 1.152 1.94 1.983 3.682 1.999 4.293 0 1.102-0.898 2-2 2zM31.414 13.566l-12.981-12.981c-0.391-0.391-0.902-0.586-1.414-0.586s-1.024 0.195-1.414 0.586l-5.803 5.803-6.242-6.242c-0.195-0.195-0.512-0.195-0.707 0l-0.708 0.707c-0.195 0.195-0.195 0.512 0 0.707l6.242 6.242-6.631 6.631c-2.343 2.343-2.343 6.141 0 8.484l7.324 7.324c1.172 1.171 2.707 1.758 4.242 1.758s3.071-0.586 4.242-1.758l13.848-13.848c0.781-0.781 0.781-2.047 0.001-2.829zM16.152 28.829c-0.756 0.755-1.76 1.171-2.828 1.171s-2.072-0.416-2.828-1.171l-7.325-7.325c-0.43-0.43-0.736-0.946-0.932-1.504h22.741l-8.828 8.829zM26.98 18h-24.914c0.138-0.81 0.513-1.559 1.106-2.152l6.631-6.632 5.491 5.491c0.391 0.391 1.024 0.391 1.414 0s0.391-1.024 0-1.414l-5.491-5.491 5.803-5.803 12.981 12.98-3.020 3.020z"></path>
</symbol>
<symbol id="icon-rankings" viewBox="0 0 32 32">
<title>rankings</title>
<path d="M14.693 12.464l-2.813-0.844c-0.322-0.097-0.548-0.424-0.548-0.796 0-0.454 0.331-0.824 0.738-0.824h1.757c0.285 0 0.56 0.081 0.801 0.232 0.203 0.127 0.46 0.119 0.633-0.046l0.734-0.701c0.221-0.211 0.208-0.576-0.036-0.759-0.569-0.427-1.255-0.673-1.961-0.709v-1.018c0-0.276-0.224-0.5-0.5-0.5h-1c-0.276 0-0.5 0.224-0.5 0.5v1.008c-1.476 0.039-2.667 1.284-2.667 2.817 0 1.248 0.811 2.363 1.974 2.712l2.813 0.844c0.322 0.097 0.548 0.424 0.548 0.796 0 0.454-0.331 0.824-0.738 0.824h-1.757c-0.285 0-0.56-0.081-0.801-0.232-0.203-0.127-0.46-0.119-0.633 0.046l-0.734 0.701c-0.221 0.211-0.208 0.576 0.036 0.759 0.569 0.427 1.255 0.673 1.961 0.709v1.018c0 0.276 0.224 0.5 0.5 0.5h1c0.276 0 0.5-0.224 0.5-0.5v-1.008c1.476-0.039 2.667-1.284 2.667-2.817 0-1.248-0.811-2.363-1.974-2.712zM31.779 30.099l-8.062-8.063c-0.144-0.144-0.331-0.219-0.531-0.219h-0.644c2.144-2.319 3.456-5.412 3.456-8.818 0-7.181-5.819-12.999-12.999-12.999s-12.999 5.819-12.999 12.999c0 7.181 5.819 12.999 12.999 12.999 3.406 0 6.499-1.313 8.818-3.45v0.637c0 0.2 0.081 0.387 0.219 0.531l8.062 8.062c0.294 0.294 0.769 0.294 1.063 0l0.619-0.619c0.294-0.293 0.294-0.768 0-1.062zM12.999 23.999c-6.081 0-10.999-4.918-10.999-10.999s4.919-10.999 10.999-10.999 10.999 4.919 10.999 10.999c0 6.081-4.918 10.999-10.999 10.999z"></path>
</symbol>
<symbol id="icon-your-brand" viewBox="0 0 160 32">
<title>your-brand</title>
<path d="M5.455 0.48l2.681 10.601 2.679-10.601h5.455l-5.438 17.636-0.107 0.325v13.065h-5.163v-13.047l-0.125-0.34-5.438-17.638h5.455z"></path>
<path d="M31.97 25.29c0 4.463-2.232 6.7-6.695 6.71-4.453 0-6.68-2.237-6.68-6.71v-18.595c0-4.463 2.227-6.695 6.68-6.695 4.463 0 6.695 2.232 6.695 6.695v18.595zM26.81 6.695c0-1.157-0.507-1.742-1.519-1.752h-0.030c-1.002 0-1.504 0.585-1.504 1.752v18.595c0 1.167 0.505 1.752 1.519 1.752 1.022 0 1.534-0.585 1.534-1.752v-18.595z"></path>
<path d="M48.908 25.29c0 4.463-2.232 6.7-6.695 6.71-4.453 0-6.68-2.237-6.68-6.71v-24.81h5.16v24.81c0 1.167 0.505 1.752 1.519 1.752 1.022 0 1.534-0.585 1.534-1.752v-24.81h5.16v24.81z"></path>
<path d="M52.782 0.48l6.772 0.015c4.153 0 6.23 2.232 6.23 6.695v4.571c0 2.811-1.127 4.628-3.379 5.455l4.976 14.289h-5.625l-3.936-13.327 0.125-0.015v13.342h-5.16v-31.025h-0.002zM57.942 5.423v8.089h0.62c0.557 0 0.92-0.030 1.085-0.092 0.65-0.257 0.977-0.812 0.977-1.659v-4.571c0-1.177-0.507-1.767-1.519-1.767h-1.162z"></path>
<path d="M77.732 0.48l7.145 0.015c4.153 0 6.23 2.232 6.23 6.695v4.571c0 2.107-0.692 3.519-2.077 4.231 1.384 0.712 2.077 2.124 2.077 4.231v4.588c0 4.453-2.077 6.68-6.23 6.68-0.052 0-0.14 0.005-0.262 0.015h-6.88v-31.025h-0.002zM82.893 5.423v8.089h0.992c0.557 0 0.92-0.030 1.085-0.092 0.65-0.257 0.977-0.812 0.977-1.659v-4.571c0-1.177-0.507-1.767-1.519-1.767h-1.534zM82.893 18.473v8.089h1.534c1.012 0 1.519-0.582 1.519-1.752v-4.586c0-0.847-0.325-1.394-0.977-1.642-0.175-0.072-0.537-0.107-1.085-0.107h-0.992v-0.003z"></path>
<path d="M94.671 0.48l6.772 0.015c4.153 0 6.23 2.232 6.23 6.695v4.571c0 2.811-1.127 4.628-3.379 5.455l4.976 14.289h-5.625l-3.936-13.327 0.125-0.015v13.342h-5.16v-31.025h-0.002zM99.831 5.423v8.089h0.62c0.557 0 0.92-0.030 1.085-0.092 0.65-0.257 0.977-0.812 0.977-1.659v-4.571c0-1.177-0.507-1.767-1.519-1.767h-1.162z"></path>
<path d="M124.796 20.377l1.472 11.128h-5.208l-0.852-6.447h-3.796l-0.867 6.447h-5.19l1.472-11.081 3.146-19.945h6.695l3.129 19.897zM119.543 20.1l-1.24-9.391-1.24 9.391h2.479z"></path>
<path d="M128.902 0.48h5.098l3.441 14.629v-14.552l4.836-0.077v31.025h-5.098l-3.286-14.057v14.057h-4.991v-31.025z"></path>
<path d="M146.305 0.48l7.145 0.015c4.153 0 6.23 2.232 6.23 6.695v17.621c0 4.453-2.077 6.68-6.23 6.68-0.052 0-0.14 0.005-0.262 0.015h-6.88v-31.025h-0.002zM151.466 5.423v21.137h1.534c1.012 0 1.519-0.582 1.519-1.752v-17.618c0-1.177-0.507-1.767-1.519-1.767h-1.534z"></path>
</symbol>
<symbol id="icon-amplify" viewBox="0 0 114 32">
<title>amplify</title>
<path d="M15.060 20.669l1.488 11.293h-5.002l-0.872-6.588h-4.166l-0.887 6.588h-4.987l1.488-11.245 3.199-20.303h6.555l3.184 20.255zM11.465 0.89h-5.731l-3.136 19.889-1.425 10.706h4.038l0.887-6.588h4.99l0.872 6.588h4.053l-1.425-10.754-3.121-19.842zM6.603 20.94l1.979-14.964 1.979 14.964h-3.958zM10.025 20.463l-1.44-10.879-1.443 10.879h2.883z"></path>
<path d="M29.236 20.94l5.020-20.526h4.91v31.548h-4.767v-15.488l-3.404 15.488h-3.422l-3.514-15.554v15.551h-4.815v-31.545h4.91l5.082 20.526zM23.772 0.89h-4.056v30.598h3.865v-19.324l4.371 19.321h2.66l4.261-19.383v19.383h3.818v-30.596h-4.056l-5.401 22.044-5.463-22.044z"></path>
<path d="M43.284 0.414l6.764 0.015c4.139 0 6.207 2.256 6.207 6.764v4.672c0 3.327-1.485 5.469-4.452 6.43-0.717 0.232-1.741 0.348-3.074 0.348h-0.491v13.319h-4.957v-31.548h0.003zM43.757 31.485h4.008v-13.319h0.967c1.288 0 2.258-0.104 2.913-0.315 2.755-0.899 4.133-2.892 4.133-5.987v-4.672c0-4.193-1.91-6.288-5.734-6.288l-6.288-0.015v30.596zM49.586 4.832c1.458 0 2.184 0.786 2.184 2.36v4.672c0 1.098-0.458 1.833-1.378 2.202-0.253 0.095-0.708 0.143-1.363 0.143h-1.268v-9.376h1.824zM48.241 5.306v8.424h0.792c0.592 0 0.991-0.036 1.202-0.11 0.708-0.286 1.062-0.872 1.062-1.759v-4.672c0-1.256-0.571-1.884-1.711-1.884h-1.345z"></path>
<path d="M59.578 31.961v-31.548h4.957v26.653h7.142v4.895h-12.099zM71.204 31.485v-3.943h-7.142v-26.653h-4.008v30.598l11.15-0.003z"></path>
<path d="M74.45 0.414h4.957v31.548h-4.957v-31.548zM74.927 31.485h4.008v-30.596h-4.008v30.596z"></path>
<path d="M83.603 0.414h12.099v4.895h-7.142v8.424h6.145v4.91h-6.145v13.319h-4.957v-31.548zM84.080 31.485h4.008v-13.319h6.145v-3.958h-6.145v-9.376h7.142v-3.943h-11.15v30.596z"></path>
<path d="M102.546 0.414l2.866 11.388 2.866-11.388h5.258l-5.526 17.943-0.11 0.333v13.271h-4.957v-13.256l-0.128-0.348-5.526-17.943c0 0 5.258 0 5.258 0zM97.922 0.89l5.338 17.309 0.158 0.411v12.876h4.008v-12.858l0.143-0.428 5.338-17.309h-4.243l-3.246 12.843-3.252-12.843h-4.243z"></path>
</symbol>
<symbol id="icon-twitter" viewBox="0 0 32 32">
<title>twitter</title>
<path d="M28.711 9.482c0.020 0.284 0.020 0.569 0.020 0.853 0 8.67-6.599 18.66-18.66 18.66-3.716 0-7.168-1.076-10.071-2.944 0.528 0.061 1.036 0.081 1.584 0.081 3.066 0 5.888-1.036 8.142-2.802-2.883-0.061-5.3-1.949-6.132-4.548 0.406 0.061 0.812 0.102 1.239 0.102 0.589 0 1.178-0.081 1.726-0.223-3.005-0.609-5.259-3.249-5.259-6.436v-0.081c0.873 0.487 1.888 0.792 2.964 0.832-1.766-1.178-2.924-3.188-2.924-5.462 0-1.218 0.325-2.335 0.893-3.31 3.228 3.98 8.081 6.579 13.523 6.863-0.101-0.487-0.162-0.995-0.162-1.502 0-3.614 2.924-6.558 6.558-6.558 1.888 0 3.594 0.792 4.792 2.071 1.482-0.284 2.903-0.832 4.162-1.584-0.487 1.523-1.523 2.802-2.883 3.614 1.32-0.142 2.599-0.508 3.777-1.015-0.893 1.299-2.010 2.457-3.289 3.391z"></path>
</symbol>
<symbol id="icon-pinterest" viewBox="0 0 31 32">
<title>pinterest</title>
<path d="M31 16c0 8.563-6.938 15.5-15.5 15.5-1.6 0-3.137-0.244-4.588-0.694 0.631-1.031 1.575-2.719 1.925-4.063 0.188-0.725 0.962-3.688 0.962-3.688 0.506 0.962 1.981 1.781 3.55 1.781 4.675 0 8.044-4.3 8.044-9.644 0-5.119-4.181-8.95-9.556-8.95-6.688 0-10.244 4.488-10.244 9.381 0 2.275 1.213 5.106 3.144 6.006 0.294 0.137 0.45 0.075 0.519-0.206 0.050-0.212 0.313-1.269 0.431-1.756 0.037-0.156 0.019-0.294-0.106-0.444-0.631-0.781-1.144-2.206-1.144-3.537 0-3.419 2.588-6.725 7-6.725 3.806 0 6.475 2.594 6.475 6.306 0 4.194-2.119 7.1-4.875 7.1-1.519 0-2.662-1.256-2.294-2.8 0.438-1.844 1.281-3.831 1.281-5.162 0-1.188-0.637-2.181-1.963-2.181-1.556 0-2.806 1.606-2.806 3.762 0 1.375 0.463 2.3 0.463 2.3s-1.531 6.488-1.813 7.7c-0.313 1.338-0.188 3.225-0.056 4.45-5.762-2.256-9.85-7.869-9.85-14.438 0-8.563 6.938-15.5 15.5-15.5s15.5 6.938 15.5 15.5z"></path>
</symbol>
<symbol id="icon-linkedin" viewBox="0 0 32 32">
<title>linkedin</title>
<path d="M6.268 28h-5.805v-18.694h5.805v18.694zM3.362 6.756c-1.856 0-3.362-1.537-3.362-3.394s1.506-3.362 3.362-3.362 3.362 1.506 3.362 3.362c0 1.856-1.506 3.394-3.362 3.394zM27.994 28h-5.793v-9.1c0-2.169-0.044-4.95-3.018-4.95-3.018 0-3.481 2.356-3.481 4.794v9.256h-5.799v-18.694h5.567v2.55h0.081c0.775-1.469 2.668-3.019 5.492-3.019 5.875 0 6.955 3.869 6.955 8.894v10.269h-0.006z"></path>
</symbol>
<symbol id="icon-github" viewBox="0 0 30 32">
<title>github</title>
<path d="M11.631 20.544c0 1.306-0.681 3.444-2.294 3.444s-2.294-2.137-2.294-3.444c0-1.306 0.681-3.444 2.294-3.444s2.294 2.137 2.294 3.444zM30 17.387c0 1.994-0.2 4.106-1.094 5.938-2.369 4.787-8.881 4.675-13.544 4.675-4.738 0-11.637 0.169-14.1-4.675-0.913-1.813-1.262-3.944-1.262-5.938 0-2.619 0.869-5.094 2.594-7.1-0.325-0.988-0.481-2.025-0.481-3.050 0-1.344 0.306-2.019 0.913-3.237 2.831 0 4.644 0.563 6.8 2.25 1.813-0.431 3.675-0.625 5.544-0.625 1.688 0 3.387 0.181 5.025 0.575 2.125-1.669 3.938-2.2 6.738-2.2 0.613 1.219 0.913 1.894 0.913 3.237 0 1.025-0.163 2.044-0.481 3.013 1.719 2.025 2.438 4.519 2.438 7.138zM25.981 20.544c0-2.744-1.669-5.163-4.594-5.163-1.181 0-2.313 0.213-3.5 0.375-0.931 0.144-1.863 0.2-2.819 0.2-0.95 0-1.881-0.056-2.819-0.2-1.169-0.162-2.313-0.375-3.5-0.375-2.925 0-4.594 2.419-4.594 5.163 0 5.488 5.025 6.331 9.4 6.331h3.012c4.394 0 9.413-0.838 9.413-6.331zM20.819 17.1c1.613 0 2.294 2.137 2.294 3.444s-0.681 3.444-2.294 3.444c-1.613 0-2.294-2.137-2.294-3.444s0.681-3.444 2.294-3.444z"></path>
</symbol>
<symbol id="icon-facebook" viewBox="0 0 17 32">
<title>facebook</title>
<path d="M13.488 5.312c-2.363 0-2.819 1.125-2.819 2.769v3.919h5.331l-0.731 5.688h-4.6v14.313h-5.875v-14.313h-4.794v-5.688h4.794v-4.481c0-4.869 2.975-7.519 7.319-7.519 2.081 0 3.869 0.156 4.387 0.225v5.088h-3.012z"></path>
</symbol>
</defs>
</svg>
